<?xml version="1.0" encoding="UTF-8"?>
<svg id="_圖層_2" data-name="圖層 2" xmlns="http://www.w3.org/2000/svg" viewBox="0 0 861.95 606">
  <defs>
    <style>
      .cls-1 {
        stroke-width: 3px;
      }

      .cls-1, .cls-2 {
        stroke: #000;
        stroke-miterlimit: 10;
      }

      .cls-2 {
        stroke-width: 5px;
      }
    </style>
  </defs>
  <polygon class="cls-1" points="55.25 182 4.75 182 94.75 118.88 94.75 71 115.25 71 115.25 126.5 55.25 182"/>
  <polygon class="cls-1" points="141.58 404.17 162.08 404.17 162.08 529.54 123.42 529.54 141.58 509.67 141.58 404.17"/>
  <polygon class="cls-1" points="231.25 404.17 251.75 404.17 251.75 529.54 213.08 529.54 231.25 509.67 231.25 404.17"/>
  <polygon class="cls-1" points="461.25 36.75 485.75 36.75 485.75 228.75 457.75 269 425 269 461.25 227.5 461.25 36.75"/>
  <polygon class="cls-1" points="321 53.1 348.5 55 376 92.5 332.52 79.08 321 53.1"/>
  <polygon class="cls-1" points="59.58 303 87.08 304.9 114.58 342.4 71.1 328.98 59.58 303"/>
  <polygon class="cls-1" points="53.94 370.57 81.38 368 114.58 400.56 69.5 394.34 53.94 370.57"/>
  <polygon class="cls-1" points="552.19 78.69 541.17 103.96 496.62 117.28 523.85 80.82 552.19 78.69"/>
  <polygon class="cls-1" points="314.41 243.47 318.12 215.01 390.6 167.28 342.51 239.4 314.41 243.47"/>
  <polygon class="cls-1" points="40.77 513.68 44.48 485.22 116.96 437.49 68.88 509.62 40.77 513.68"/>
  <polygon class="cls-1" points="172.5 282.11 186.25 305 177.24 381.46 166.02 381.74 158.75 304.75 172.5 282.11"/>
  <polygon class="cls-1" points="230.77 282.11 244.52 305 235.51 381.46 224.29 381.74 217.02 304.75 230.77 282.11"/>
  <polygon class="cls-1" points="280.75 92.5 291 92.5 291 108.58 283.25 116.75 267 116.75 280.75 105.58 280.75 92.5"/>
  <polygon class="cls-1" points="218.08 56.67 232.42 33.08 247.42 56 232.75 136.5 218.08 56.67"/>
  <polygon class="cls-1" points="277.74 178.25 277.74 156.5 265.25 156.5 265.25 170.25 156.75 269 201.5 269 277.74 178.25"/>
  <polygon class="cls-1" points="149.75 136.5 149.75 151.45 129.08 151.45 104.75 177.67 104.42 201.33 87.08 213 87.08 168.33 120.08 136.5 149.75 136.5"/>
  <polygon class="cls-1" points="164.25 92.5 184.75 92.5 184.75 161.5 97.75 269 72.25 269 48.25 249.5 69.74 249.41 164.25 162 164.25 92.5"/>
  <line class="cls-2" x1="60" y1="71" x2="141.25" y2="71"/>
  <line class="cls-2" x1="164.25" y1="93.5" x2="216.25" y2="93.5"/>
  <line class="cls-2" x1="250" y1="93.5" x2="291" y2="93.5"/>
  <line class="cls-2" x1="277.74" y1="157.5" x2="202.08" y2="157.5"/>
  <polygon class="cls-1" points="418.5 224.08 377.75 224.08 427.75 154 427.75 103.25 441 103.25 441 154.25 418.5 224.08"/>
  <polyline class="cls-1" points="485.58 118.31 545.41 206.46 578.31 206.28 567.84 222.24 530.19 222.33 485.75 145.16"/>
  <line class="cls-2" x1="441" y1="104.25" x2="392.5" y2="104.25"/>
  <polygon class="cls-1" points="281.42 466.85 162.08 466.85 162.08 456 298.11 456 281.42 466.85"/>
  <line class="cls-2" x1="141.58" y1="404.17" x2="251.75" y2="404.17"/>
  <rect class="cls-1" x="186.64" y="418.58" width="23" height="23" transform="translate(-246.08 266.07) rotate(-45)"/>
  <line class="cls-2" x1="130.75" y1="381.74" x2="267.42" y2="381.74"/>
  <line class="cls-2" x1="130.75" y1="348.33" x2="156.75" y2="348.33"/>
  <line class="cls-2" x1="130.75" y1="314.92" x2="159.71" y2="314.92"/>
  <line class="cls-2" x1="244.52" y1="348.33" x2="267.75" y2="348.33"/>
  <line class="cls-2" x1="243.35" y1="314.92" x2="267.75" y2="314.92"/>
  <line class="cls-2" x1="187.17" y1="348.33" x2="213.08" y2="348.33"/>
  <line class="cls-2" x1="182.75" y1="314.92" x2="217.98" y2="314.92"/>
  <polygon class="cls-1" points="402.71 404.17 423.21 404.17 423.21 529.54 384.54 529.54 402.71 509.67 402.71 404.17"/>
  <polygon class="cls-1" points="492.37 404.17 512.87 404.17 512.87 529.54 474.21 529.54 492.37 509.67 492.37 404.17"/>
  <polygon class="cls-1" points="320.71 303 348.21 304.9 375.71 342.4 332.22 328.98 320.71 303"/>
  <polygon class="cls-1" points="315.06 370.57 342.5 368 375.71 400.56 330.62 394.34 315.06 370.57"/>
  <polygon class="cls-1" points="301.89 513.68 305.6 485.22 378.08 437.49 330 509.62 301.89 513.68"/>
  <polygon class="cls-1" points="433.62 282.11 447.37 305 438.37 381.46 427.14 381.74 419.87 304.75 433.62 282.11"/>
  <polygon class="cls-1" points="491.89 282.11 505.64 305 496.63 381.46 485.41 381.74 478.14 304.75 491.89 282.11"/>
  <polygon class="cls-1" points="542.54 466.85 423.21 466.85 423.21 456 559.23 456 542.54 466.85"/>
  <line class="cls-2" x1="402.71" y1="404.17" x2="512.87" y2="404.17"/>
  <rect class="cls-1" x="447.76" y="418.58" width="23" height="23" transform="translate(-169.6 450.71) rotate(-45)"/>
  <line class="cls-2" x1="391.87" y1="381.74" x2="528.54" y2="381.74"/>
  <line class="cls-2" x1="391.87" y1="348.33" x2="417.87" y2="348.33"/>
  <line class="cls-2" x1="391.87" y1="314.92" x2="426.75" y2="314.92"/>
  <line class="cls-2" x1="505.64" y1="348.33" x2="528.87" y2="348.33"/>
  <line class="cls-2" x1="502.75" y1="314.92" x2="528.87" y2="314.92"/>
  <line class="cls-2" x1="448.29" y1="348.33" x2="474.21" y2="348.33"/>
  <line class="cls-2" x1="444.42" y1="314.92" x2="480.75" y2="314.92"/>
  <polyline class="cls-1" points="660.25 523 682.37 498.25 682.13 425.88 699.08 426 699.08 497.83 679 523 609.94 523 588.87 498.5 588.87 338 619.42 299.5 638.08 299.5 609.65 337.83 608.67 497.75 630.75 523"/>
  <polygon class="cls-1" points="284 262.3 202.08 192.76 253.17 269 294.17 269 301.25 262.51 284 262.3"/>
  <line class="cls-2" x1="635.75" y1="300.5" x2="699.63" y2="300.5"/>
  <line class="cls-2" x1="647.25" y1="426" x2="699.08" y2="426"/>
  <polygon class="cls-1" points="743 523 726.71 523 708.92 501 708.92 323.25 729 299.5 742.25 299.5 723.75 323.75 723.75 500.67 743 523"/>
  <polygon class="cls-1" points="783.25 523 798.63 523 816.42 501 816.42 323.25 796.33 299.5 781.88 299.25 801.58 323.75 801.58 500.67 783.25 523"/>
  <line class="cls-2" x1="739.75" y1="300.51" x2="785.75" y2="300.23"/>
  <line class="cls-2" x1="740.42" y1="522" x2="788.42" y2="522"/>
</svg>